<svg width="60" height="48" viewBox="0 0 60 48" fill="none" xmlns="http://www.w3.org/2000/svg">
<g clip-path="url(#clip0_58_439)">
<path fill-rule="evenodd" clip-rule="evenodd" d="M3.43008 0H47.2359C49.1238 0 50.666 1.5528 50.666 3.45369V14.1676C50.4047 14.0378 50.141 13.915 49.8727 13.7982L49.6359 13.6897C49.2176 13.5162 48.7945 13.3569 48.3656 13.2153V9.66844H48.382H2.44102V35.8171C2.44102 36.3481 2.86172 36.7717 3.38906 36.7717H26.0109C26.0742 36.9392 26.1398 37.1056 26.209 37.272C26.4398 37.836 26.7047 38.3917 26.9977 38.9345H3.43008C1.54219 38.9345 0 37.3782 0 35.4808V3.45369C0 1.5528 1.54219 0 3.43008 0ZM39.2344 29.0572L41.4867 31.2165L46.0453 25.7617C46.4285 25.3699 46.6676 25.0572 47.1387 25.5469L48.2871 26.7398C48.7898 27.2401 48.7652 27.5339 48.2918 28L42.3621 34.6678C41.3625 35.6543 41.5359 35.7145 40.5223 34.7021L37.0406 31.2165C36.8285 30.9876 36.852 30.7552 37.0828 30.5251L38.4773 29.0537C38.7469 28.7681 38.9602 28.7941 39.2344 29.0572ZM42.7711 16.5628C46.4121 16.5628 49.8902 18.013 52.4648 20.6065C56.0191 24.1853 57.3422 29.4631 55.9102 34.3103C55.5785 35.4348 55.1074 36.4991 54.518 37.4832L59.8266 43.3097C60.0715 43.5776 60.0551 43.9965 59.7879 44.2431L55.8902 47.8277C55.6242 48.0732 55.2105 48.0543 54.9656 47.7864L49.8867 42.1617C47.7363 43.4808 45.2906 44.1699 42.7711 44.1699C39.1313 44.1699 35.652 42.7186 33.0785 40.1263C31.8042 38.8431 30.7932 37.32 30.1031 35.6437C27.9785 30.4909 29.1867 24.5263 33.0797 20.6077C34.3522 19.3237 35.8639 18.3052 37.5281 17.6106C39.1453 16.9345 40.9172 16.5628 42.7711 16.5628ZM51.0832 21.9953C47.7281 18.6171 42.6422 17.6012 38.2734 19.423C30.4313 22.6926 28.6289 32.8732 34.4555 38.7351C37.8164 42.1109 42.893 43.1316 47.2676 41.3086C51.6668 39.469 54.5262 35.1611 54.5262 30.3658C54.5262 28.7587 54.2109 27.2283 53.6402 25.8383C53.0453 24.4015 52.1766 23.0959 51.0832 21.9953ZM5.13633 30.6124H24.8438C24.852 31.2224 24.8906 31.8348 24.9609 32.446H5.13633V30.6124ZM5.91563 13.0737H37.6195C37.0395 13.2507 36.4688 13.456 35.9121 13.6885L35.9145 13.6956C34.8187 14.1522 33.7805 14.7139 32.8137 15.3652C31.8408 16.02 30.9338 16.7689 30.1055 17.6012L30.0914 17.6153C28.6723 19.0478 27.5262 20.6832 26.6707 22.4389H5.91563C5.48672 22.4389 5.13633 22.0861 5.13633 21.6543V13.8596C5.13633 13.4277 5.48672 13.0737 5.91563 13.0737ZM5.13633 25.613H25.4789C25.3141 26.2167 25.1811 26.8288 25.0805 27.4466H5.13633V25.613ZM43.9699 3.88201C44.9062 3.88201 45.6645 4.64543 45.6645 5.5882C45.6645 6.52979 44.9062 7.2944 43.9699 7.2944C43.0348 7.2944 42.2754 6.52979 42.2754 5.5882C42.2801 4.64543 43.0383 3.88201 43.9699 3.88201ZM32.4914 3.88201C33.4277 3.88201 34.1859 4.64543 34.1859 5.5882C34.1859 6.52979 33.4277 7.2944 32.4914 7.2944C31.5551 7.2944 30.7969 6.52979 30.7969 5.5882C30.7969 4.64543 31.5551 3.88201 32.4914 3.88201ZM38.2312 3.88201C39.1664 3.88201 39.9246 4.64543 39.9246 5.5882C39.9246 6.52979 39.1664 7.2944 38.2312 7.2944C37.2949 7.2944 36.5355 6.52979 36.5355 5.5882C36.5355 4.64543 37.2949 3.88201 38.2312 3.88201Z" fill="black"/>
</g>
<defs>
<clipPath id="clip0_58_439">
<rect width="60" height="48" fill="white"/>
</clipPath>
</defs>
</svg>
