<svg width="60" height="48" viewBox="0 0 60 48" fill="none" xmlns="http://www.w3.org/2000/svg">
<g clip-path="url(#clip0_58_428)">
<path fill-rule="evenodd" clip-rule="evenodd" d="M23.9795 17.1697C27.4951 19.6917 33.1299 16.984 35.3467 21.373C35.9326 22.5362 36.0596 24.1295 35.5322 25.3954C35.3174 25.9037 35.0049 26.3582 34.5752 26.7052C34.3848 26.8567 34.1748 26.9936 33.9404 27.1109C31.0498 28.5478 28.0322 26.539 26.4356 24.11C24.9658 21.8715 24.3262 19.0807 23.9795 17.1697ZM48.833 0H3.54492C1.59668 0 0 1.59821 0 3.54831V41.5632C0 43.5133 1.59668 45.1115 3.54492 45.1115H38.877L35.8154 42.5016H3.47656C3.20313 42.5016 2.96387 42.3989 2.7832 42.2132C2.60254 42.0324 2.49512 41.788 2.49512 41.5192V9.93625H2.48047H49.7412V24.4374L52.3779 26.5781V3.54831C52.3779 1.59821 50.7813 0 48.833 0ZM6.91895 3.98819C5.95215 3.98819 5.16602 4.77507 5.16602 5.74279C5.16602 6.71052 5.95215 7.49251 6.91895 7.49251C7.88575 7.49251 8.67188 6.70563 8.67188 5.74279C8.67188 4.77507 7.88575 3.98819 6.91895 3.98819ZM18.7891 3.98819C17.8223 3.98819 17.0361 4.77507 17.0361 5.74279C17.0361 6.71052 17.8174 7.49251 18.7891 7.49251C19.7559 7.49251 20.542 6.70563 20.542 5.74279C20.542 4.77507 19.7559 3.98819 18.7891 3.98819ZM12.8564 3.98819C11.8897 3.98819 11.1035 4.77507 11.1035 5.74279C11.1035 6.71052 11.8897 7.49251 12.8564 7.49251C13.8232 7.49251 14.6094 6.70563 14.6094 5.74279C14.6045 4.77507 13.8232 3.98819 12.8564 3.98819ZM41.8115 36.4313C43.7695 34.8673 45.2881 33.0638 46.3233 30.9964L58.9209 44.2953C59.8731 45.1946 60.4102 45.9619 59.6143 47.3402C59.2188 47.7458 58.7989 47.9658 58.3545 47.9951C57.9151 48.0244 57.4512 47.868 56.9678 47.5161L41.8115 36.4313ZM35.166 28.714C36.0156 28.2594 37.1777 27.1353 37.4561 25.9086L45.3418 30.2389C44.2041 32.5067 42.7539 34.447 40.7666 35.8253C38.6914 33.0394 37.5293 31.3581 35.166 28.714Z" fill="black"/>
</g>
<defs>
<clipPath id="clip0_58_428">
<rect width="60" height="48" fill="white"/>
</clipPath>
</defs>
</svg>
