<svg width="60" height="48" viewBox="0 0 60 48" fill="none" xmlns="http://www.w3.org/2000/svg">
<g clip-path="url(#clip0_58_434)">
<path fill-rule="evenodd" clip-rule="evenodd" d="M4.06172 0H55.9383C58.1719 0 60 1.96928 60 4.37534V43.6247C60 46.0307 58.1719 48 55.9383 48H4.06172C1.82812 48 0 46.0307 0 43.6247V4.37534C0 1.96928 1.82812 0 4.06172 0ZM24.443 33.3718C25.118 34.008 25.1859 35.1151 24.5953 35.8422C24.0035 36.5693 22.977 36.6438 22.302 36.0063L16.1227 30.1755C15.4477 29.538 15.3785 28.4321 15.9703 27.7038C16.0207 27.6419 16.0746 27.5851 16.1309 27.5321L22.302 21.7076C22.977 21.0713 24.0035 21.1445 24.5953 21.8729C25.1859 22.6 25.118 23.7059 24.443 24.3434L19.6594 28.8576L24.443 33.3718ZM37.698 36.0063C37.023 36.6438 35.9965 36.5693 35.4047 35.8422C34.8141 35.1151 34.882 34.008 35.557 33.3718L40.3406 28.8576L35.557 24.3434C34.882 23.7059 34.8141 22.6 35.4047 21.8729C35.9965 21.1445 37.023 21.0713 37.698 21.7076L43.8691 27.5321C43.9254 27.5851 43.9793 27.6419 44.0297 27.7038C44.6215 28.4321 44.5523 29.538 43.8773 30.1755L37.698 36.0063ZM29.9695 20.3139C30.1734 19.3709 31.05 18.7839 31.9254 19.0036C32.8008 19.2232 33.3457 20.1675 33.1418 21.1105L29.6109 37.4C29.407 38.3442 28.5305 38.9312 27.6551 38.7116C26.7797 38.4919 26.2348 37.5477 26.4387 36.6047L29.9695 20.3139ZM2.58164 12.2512V44.0513C2.58118 44.2105 2.60993 44.3681 2.66624 44.5152C2.72255 44.6623 2.80532 44.796 2.90977 44.9085C3.01422 45.021 3.13829 45.1101 3.27485 45.1708C3.41141 45.2315 3.55776 45.2624 3.70547 45.2619H56.4609C56.6087 45.2624 56.755 45.2315 56.8916 45.1708C57.0281 45.1101 57.1522 45.021 57.2566 44.9085C57.3611 44.796 57.4439 44.6623 57.5002 44.5152C57.5565 44.3681 57.5852 44.2105 57.5848 44.0513V12.2512H2.58164ZM52.0723 4.91816C53.1809 4.91816 54.0785 5.88639 54.0785 7.07932C54.0785 8.27351 53.1809 9.24048 52.0723 9.24048C50.9648 9.24048 50.066 8.27351 50.066 7.07932C50.066 5.88639 50.9648 4.91816 52.0723 4.91816ZM38.475 4.91816C39.5836 4.91816 40.4813 5.88639 40.4813 7.07932C40.4813 8.27351 39.5836 9.24048 38.475 9.24048C37.3676 9.24048 36.4699 8.27351 36.4699 7.07932C36.4699 5.88639 37.3676 4.91816 38.475 4.91816ZM45.2742 4.91816C46.3816 4.91816 47.2805 5.88639 47.2805 7.07932C47.2805 8.27351 46.3816 9.24048 45.2742 9.24048C44.1668 9.24048 43.268 8.27351 43.268 7.07932C43.268 5.88639 44.1668 4.91816 45.2742 4.91816Z" fill="black"/>
</g>
<defs>
<clipPath id="clip0_58_434">
<rect width="60" height="48" fill="white"/>
</clipPath>
</defs>
</svg>
