<svg width="26" height="27" viewBox="0 0 26 27" fill="none" xmlns="http://www.w3.org/2000/svg">
<path d="M10.0205 14.4219V9.38028L12.9997 7.39088L15.9788 9.38028V14.4219H14.3538V11.1517H11.6455V14.4219H10.0205ZM12.9997 22.3523C15.4011 20.1539 17.175 18.16 18.3216 16.3704C19.4681 14.5809 20.0413 13.0048 20.0413 11.6422C20.0413 9.49837 19.3597 7.74516 17.9965 6.38255C16.6334 5.01995 14.9677 4.33865 12.9997 4.33865C11.0316 4.33865 9.36599 5.01995 8.0028 6.38255C6.6396 7.74516 5.95801 9.49837 5.95801 11.6422C5.95801 13.0048 6.54481 14.5809 7.71842 16.3704C8.89204 18.16 10.6525 20.1539 12.9997 22.3523ZM12.9997 24.5052C10.0927 22.0162 7.92155 19.7043 6.48613 17.5695C5.05072 15.4348 4.33301 13.459 4.33301 11.6422C4.33301 8.91699 5.20419 6.74591 6.94655 5.12896C8.68891 3.512 10.7066 2.70352 12.9997 2.70352C15.2927 2.70352 17.3104 3.512 19.0528 5.12896C20.7952 6.74591 21.6663 8.91699 21.6663 11.6422C21.6663 13.459 20.9486 15.4348 19.5132 17.5695C18.0778 19.7043 15.9066 22.0162 12.9997 24.5052Z" fill="#315841"/>
</svg>
