<svg width="32" height="33" viewBox="0 0 32 33" fill="none" xmlns="http://www.w3.org/2000/svg">
<path d="M27.7606 2.73832H4.3925C3.11562 2.73832 2 3.66279 2 4.93253V28.4984C2 29.7751 3.11562 30.9128 4.3925 30.9128H27.7537C29.0375 30.9128 30 29.7676 30 28.4984V4.93253C30.0075 3.66279 29.0375 2.73832 27.7606 2.73832ZM10.6794 26.2231H6.66813V13.6735H10.6794V26.2231ZM8.8125 11.7655H8.78375C7.5 11.7655 6.66875 10.8039 6.66875 9.60018C6.66875 8.37447 7.52188 7.43553 8.83438 7.43553C10.1469 7.43553 10.95 8.36755 10.9788 9.60018C10.9781 10.8039 10.1469 11.7655 8.8125 11.7655ZM25.3394 26.2231H21.3281V19.3612C21.3281 17.7173 20.7444 16.5941 19.2931 16.5941C18.1844 16.5941 17.5281 17.3488 17.2362 18.084C17.1269 18.3481 17.0975 18.7078 17.0975 19.0751V26.2231H13.0863V13.6735H17.0975V15.42C17.6812 14.5835 18.5931 13.3798 20.715 13.3798C23.3481 13.3798 25.34 15.1263 25.34 18.8915L25.3394 26.2231Z" fill="#294735"/>
</svg>
