<svg width="32" height="33" viewBox="0 0 32 33" fill="none" xmlns="http://www.w3.org/2000/svg">
<g clip-path="url(#clip0_58_415)">
<path d="M31.7904 10.0769C31.7904 7.24689 29.7216 4.9703 27.1654 4.9703C23.7029 4.80742 20.1716 4.74453 16.5629 4.74453H15.4379C11.8379 4.74453 8.30038 4.80742 4.83788 4.97093C2.28788 4.97093 0.21913 7.2601 0.21913 10.0901C0.0628801 12.3284 -0.00336993 14.5672 0.000380067 16.8061C-0.00586993 19.0449 0.0649634 21.2859 0.21288 23.529C0.21288 26.359 2.28163 28.6544 4.83163 28.6544C8.46913 28.8242 12.2004 28.8997 15.9941 28.8934C19.7941 28.906 23.515 28.8263 27.1566 28.6544C29.7129 28.6544 31.7816 26.359 31.7816 23.529C31.9316 21.2838 32.0004 19.0449 31.9941 16.7998C32.0083 14.5609 31.9404 12.32 31.7904 10.0769ZM12.9379 22.9755V10.6178L22.0004 16.7935L12.9379 22.9755Z" fill="#294735"/>
</g>
<defs>
<clipPath id="clip0_58_415">
<rect width="32" height="32.1994" fill="white" transform="translate(0 0.719604)"/>
</clipPath>
</defs>
</svg>
