<svg width="32" height="33" viewBox="0 0 32 33" fill="none" xmlns="http://www.w3.org/2000/svg">
<path d="M16 2.73832C8.26875 2.73832 2 9.20964 2 17.184C2 23.5673 6.0125 28.9758 11.575 30.8876C11.653 30.9047 11.7327 30.9131 11.8125 30.9128C12.3313 30.9128 12.5312 30.5291 12.5312 30.1958C12.5312 29.8499 12.5188 28.9443 12.5125 27.7369C12.0494 27.8461 11.5756 27.903 11.1 27.9067C8.40625 27.9067 7.79375 25.7999 7.79375 25.7999C7.15625 24.1333 6.2375 23.6868 6.2375 23.6868C5.01875 22.8252 6.23125 22.8 6.325 22.8H6.33125C7.7375 22.9258 8.475 24.2968 8.475 24.2968C9.175 25.5294 10.1125 25.8753 10.95 25.8753C11.5038 25.8642 12.049 25.7356 12.55 25.498C12.675 24.5672 13.0375 23.932 13.4375 23.5673C10.3313 23.2025 7.0625 21.9636 7.0625 16.4293C7.0625 14.8508 7.60625 13.5616 8.5 12.5554C8.35625 12.1906 7.875 10.719 8.6375 8.73168C8.73978 8.70705 8.8449 8.69647 8.95 8.70023C9.45625 8.70023 10.6 8.89519 12.4875 10.2159C14.781 9.57019 17.2065 9.57019 19.5 10.2159C21.3875 8.89519 22.5312 8.70023 23.0375 8.70023C23.1426 8.69647 23.2477 8.70705 23.35 8.73168C24.1125 10.719 23.6312 12.1906 23.4875 12.5554C24.3812 13.5679 24.925 14.8571 24.925 16.4293C24.925 21.9762 21.65 23.1962 18.5312 23.5547C19.0312 24.0012 19.4813 24.8817 19.4813 26.2275C19.4813 28.1582 19.4625 29.7179 19.4625 30.1895C19.4625 30.5291 19.6562 30.9128 20.175 30.9128C20.259 30.9131 20.3428 30.9047 20.425 30.8876C25.9937 28.9758 30 23.561 30 17.184C30 9.20964 23.7313 2.73832 16 2.73832Z" fill="#294735"/>
</svg>
