<svg width="32" height="33" viewBox="0 0 32 33" fill="none" xmlns="http://www.w3.org/2000/svg">
<path d="M21.8331 5.08598C23.3789 5.09062 24.8601 5.71057 25.9531 6.81042C27.0462 7.91027 27.6623 9.40066 27.6669 10.9561V22.695C27.6623 24.2504 27.0462 25.7408 25.9531 26.8407C24.8601 27.9405 23.3789 28.5605 21.8331 28.5651H10.1669C8.62109 28.5605 7.13993 27.9405 6.04689 26.8407C4.95385 25.7408 4.33774 24.2504 4.33313 22.695V10.9561C4.33774 9.40066 4.95385 7.91027 6.04689 6.81042C7.13993 5.71057 8.62109 5.09062 10.1669 5.08598H21.8331ZM21.8331 2.73832H10.1669C5.675 2.73832 2 6.43621 2 10.9561V22.695C2 27.2149 5.675 30.9128 10.1669 30.9128H21.8331C26.325 30.9128 30 27.2149 30 22.695V10.9561C30 6.43621 26.325 2.73832 21.8331 2.73832Z" fill="#294735"/>
<path d="M23.5831 10.9561C23.237 10.9561 22.8987 10.8528 22.6109 10.6593C22.3231 10.4658 22.0988 10.1908 21.9663 9.86904C21.8339 9.54728 21.7992 9.19322 21.8668 8.85164C21.9343 8.51006 22.1009 8.19629 22.3457 7.95003C22.5904 7.70376 22.9023 7.53605 23.2417 7.46811C23.5812 7.40016 23.9331 7.43503 24.2528 7.56831C24.5726 7.70159 24.8459 7.92729 25.0382 8.21687C25.2305 8.50645 25.3331 8.8469 25.3331 9.19517C25.3336 9.42656 25.2887 9.65576 25.2009 9.86963C25.1132 10.0835 24.9843 10.2778 24.8217 10.4414C24.6591 10.605 24.466 10.7347 24.2534 10.823C24.0409 10.9114 23.8131 10.9566 23.5831 10.9561ZM16 12.1296C16.923 12.1296 17.8253 12.405 18.5928 12.921C19.3602 13.437 19.9584 14.1704 20.3116 15.0285C20.6649 15.8866 20.7573 16.8308 20.5772 17.7417C20.3971 18.6526 19.9527 19.4893 19.3 20.1461C18.6473 20.8028 17.8157 21.2501 16.9105 21.4313C16.0052 21.6125 15.0668 21.5195 14.2141 21.164C13.3613 20.8086 12.6324 20.2067 12.1196 19.4345C11.6068 18.6622 11.3331 17.7543 11.3331 16.8255C11.3345 15.5805 11.8266 14.3868 12.7015 13.5065C13.5764 12.6261 14.7627 12.1309 16 12.1296ZM16 9.78193C14.6155 9.78193 13.2622 10.195 12.111 10.969C10.9599 11.743 10.0627 12.843 9.53285 14.1301C9.00303 15.4171 8.86441 16.8334 9.13451 18.1997C9.4046 19.566 10.0713 20.8211 11.0503 21.8061C12.0292 22.7912 13.2765 23.462 14.6344 23.7338C15.9922 24.0056 17.3997 23.8661 18.6788 23.333C19.9579 22.7999 21.0511 21.8971 21.8203 20.7388C22.5895 19.5805 23 18.2186 23 16.8255C23 14.9575 22.2625 13.1659 20.9497 11.845C19.637 10.524 17.8565 9.78193 16 9.78193Z" fill="#294735"/>
</svg>
