<svg width="15" height="30" viewBox="0 0 15 30" fill="none" xmlns="http://www.w3.org/2000/svg">
<g clip-path="url(#clip0_58_419)">
<path d="M7.5 0C9.56011 0 11.4354 0.879873 12.7949 2.2954L12.7983 2.2995C14.1567 3.71561 15 5.66913 15 7.81524V16.6678C15 18.8145 14.1556 20.7681 12.7972 22.1848L12.7938 22.1883C11.4343 23.6038 9.55955 24.4825 7.5 24.4825C5.43989 24.4825 3.56461 23.6032 2.20506 22.1871L2.20169 22.1836C0.843258 20.7669 0 18.8134 0 16.6678V7.81524C0 5.66854 0.844382 3.71502 2.20281 2.29774L2.20618 2.29423C3.56573 0.879288 5.44045 0 7.5 0ZM5.55 26.1866L7.49944 28.2192L9.45281 26.1866L10.3045 27.0788L7.49663 30L4.69382 27.0788L5.55 26.1866ZM7.5 18.5242C8.20225 18.5242 8.77753 17.9253 8.77753 17.1935V15.4174C8.77753 14.685 8.20225 14.0862 7.5 14.0862C6.79775 14.0862 6.22303 14.685 6.22303 15.4174V17.1935C6.22303 17.9253 6.79775 18.5242 7.5 18.5242ZM7.5 1.26215C5.7691 1.26215 4.19663 1.99918 3.05899 3.18522C1.91798 4.37361 1.21124 6.01218 1.21124 7.81524V16.6678C1.21124 18.4709 1.91798 20.1095 3.05674 21.2955C4.19663 22.4839 5.7691 23.2203 7.5 23.2203C9.2309 23.2203 10.8034 22.4839 11.941 21.2973C13.0815 20.1095 13.7888 18.4709 13.7888 16.6678V7.81524C13.7888 6.01218 13.0815 4.37361 11.9433 3.18757C10.8034 1.99918 9.2309 1.26215 7.5 1.26215Z" fill="#294735"/>
</g>
<defs>
<clipPath id="clip0_58_419">
<rect width="15" height="30" fill="white"/>
</clipPath>
</defs>
</svg>
