<svg width="28" height="28" viewBox="0 0 28 28" fill="none" xmlns="http://www.w3.org/2000/svg">
<path d="M16.3337 11.2583V9.85829C16.9753 9.58607 17.6316 9.3819 18.3024 9.24579C18.9732 9.10968 19.6781 9.04163 20.417 9.04163C20.9225 9.04163 21.4184 9.08051 21.9045 9.15829C22.3906 9.23607 22.867 9.33329 23.3337 9.44996V10.7333C22.867 10.5583 22.3955 10.427 21.9191 10.3395C21.4427 10.252 20.942 10.2083 20.417 10.2083C19.6781 10.2083 18.9684 10.3007 18.2878 10.4854C17.6073 10.6701 16.9559 10.9277 16.3337 11.2583ZM16.3337 17.675V16.2458C16.9753 15.9736 17.6316 15.7743 18.3024 15.6479C18.9732 15.5215 19.6781 15.4583 20.417 15.4583C20.9225 15.4583 21.4184 15.4972 21.9045 15.575C22.3906 15.6527 22.867 15.75 23.3337 15.8666V17.15C22.867 16.975 22.3955 16.8437 21.9191 16.7562C21.4427 16.6687 20.942 16.625 20.417 16.625C19.6781 16.625 18.9684 16.7125 18.2878 16.8875C17.6073 17.0625 16.9559 17.325 16.3337 17.675ZM16.3337 14.4666V13.0666C16.9753 12.7944 17.6316 12.5902 18.3024 12.4541C18.9732 12.318 19.6781 12.25 20.417 12.25C20.9225 12.25 21.4184 12.2888 21.9045 12.3666C22.3906 12.4444 22.867 12.5416 23.3337 12.6583V13.9416C22.867 13.7666 22.3955 13.6354 21.9191 13.5479C21.4427 13.4604 20.942 13.4166 20.417 13.4166C19.6781 13.4166 18.9684 13.509 18.2878 13.6937C17.6073 13.8784 16.9559 14.1361 16.3337 14.4666ZM7.23366 19.25C8.28366 19.25 9.29963 19.3715 10.2816 19.6145C11.2635 19.8576 12.2309 20.2222 13.1837 20.7083V8.25413C12.3087 7.67079 11.3607 7.21871 10.3399 6.89788C9.31908 6.57704 8.28366 6.41663 7.23366 6.41663C6.49477 6.41663 5.77046 6.50899 5.06074 6.69371C4.35102 6.87843 3.63644 7.1069 2.91699 7.37913V20.0375C3.51977 19.7652 4.20519 19.5659 4.97324 19.4395C5.7413 19.3132 6.49477 19.25 7.23366 19.25ZM14.9337 20.7083C15.9059 20.2222 16.8587 19.8576 17.792 19.6145C18.7253 19.3715 19.717 19.25 20.767 19.25C21.5059 19.25 22.2691 19.3083 23.0566 19.425C23.8441 19.5416 24.5198 19.6972 25.0837 19.8916V7.37913C24.4225 7.04857 23.7225 6.80551 22.9837 6.64996C22.2448 6.4944 21.5059 6.41663 20.767 6.41663C19.717 6.41663 18.701 6.57704 17.7191 6.89788C16.7371 7.21871 15.8087 7.67079 14.9337 8.25413V20.7083ZM14.0587 23.3333C13.067 22.5944 11.9878 22.0257 10.8212 21.627C9.65449 21.2284 8.45866 21.0291 7.23366 21.0291C6.51421 21.0291 5.81421 21.1166 5.13366 21.2916C4.4531 21.4666 3.77255 21.6805 3.09199 21.9333C2.64477 22.1472 2.21213 22.118 1.79408 21.8458C1.37602 21.5736 1.16699 21.1847 1.16699 20.6791V7.17496C1.16699 6.88329 1.23505 6.61593 1.37116 6.37288C1.50727 6.12982 1.71144 5.94024 1.98366 5.80413C2.80033 5.41524 3.65102 5.12843 4.53574 4.94371C5.42046 4.75899 6.31977 4.66663 7.23366 4.66663C8.45866 4.66663 9.64963 4.8319 10.8066 5.16246C11.9635 5.49302 13.0475 5.99857 14.0587 6.67913C15.0503 5.99857 16.1149 5.49302 17.2524 5.16246C18.3899 4.8319 19.5614 4.66663 20.767 4.66663C21.6809 4.66663 22.5753 4.75899 23.4503 4.94371C24.3253 5.12843 25.1712 5.41524 25.9878 5.80413C26.26 5.94024 26.4691 6.12982 26.6149 6.37288C26.7607 6.61593 26.8337 6.88329 26.8337 7.17496V20.6791C26.8337 21.2236 26.6149 21.6368 26.1774 21.9187C25.7399 22.2007 25.3073 22.2055 24.8795 21.9333C24.2184 21.6611 23.5475 21.4423 22.867 21.277C22.1864 21.1118 21.4864 21.0291 20.767 21.0291C19.542 21.0291 18.3656 21.2333 17.2378 21.6416C16.11 22.05 15.0503 22.6138 14.0587 23.3333Z" fill="#315841"/>
</svg>
