<svg width="28" height="28" viewBox="0 0 28 28" fill="none" xmlns="http://www.w3.org/2000/svg">
<path d="M13.8545 25.6667L19.1337 11.6667H21.5253L26.9503 25.6667H24.4128L23.217 21.9917H17.617L16.2462 25.6667H13.8545ZM18.2587 19.95H22.4003L20.3587 14.2917H20.3003L18.2587 19.95ZM4.66699 22.1667L3.06283 20.5625L9.01283 14.6125C8.27394 13.757 7.61769 12.8966 7.04408 12.0313C6.47046 11.166 5.96977 10.2667 5.54199 9.33337H8.07949C8.41005 9.97504 8.77463 10.5827 9.17324 11.1563C9.57185 11.7299 10.0239 12.3181 10.5295 12.9209C11.4045 12.007 12.1337 11.0591 12.717 10.0771C13.3003 9.09518 13.7962 8.06949 14.2045 7.00004H1.16699V4.66671H9.33366V2.33337H11.667V4.66671H19.8337V7.00004H16.5378C16.11 8.34171 15.5413 9.65907 14.8316 10.9521C14.1219 12.2452 13.2517 13.475 12.2212 14.6417L15.0795 17.5292L14.2045 19.8917L10.5003 16.3334L4.66699 22.1667Z" fill="#294735"/>
</svg>
