<svg width="36" height="37" viewBox="0 0 36 37" fill="none" xmlns="http://www.w3.org/2000/svg">
<path d="M18 31.7087C14.25 31.7087 11.0625 30.388 8.4375 27.7467C5.8125 25.1053 4.5 21.8979 4.5 18.1246C4.5 14.3512 5.8125 11.1439 8.4375 8.5025C11.0625 5.86114 14.25 4.54047 18 4.54047C18.2 4.54047 18.4125 4.54676 18.6375 4.55933C18.8625 4.57191 19.15 4.59078 19.5 4.61593C18.6 5.42092 17.9 6.41457 17.4 7.59689C16.9 8.77921 16.65 10.0244 16.65 11.3325C16.65 13.5965 17.4375 15.521 19.0125 17.1058C20.5875 18.6906 22.5 19.483 24.75 19.483C26.05 19.483 27.2875 19.2503 28.4625 18.7849C29.6375 18.3195 30.625 17.6718 31.425 16.8416C31.45 17.1435 31.4687 17.3888 31.4812 17.5774C31.4937 17.7661 31.5 17.9485 31.5 18.1246C31.5 21.8979 30.1875 25.1053 27.5625 27.7467C24.9375 30.388 21.75 31.7087 18 31.7087ZM18 29.4447C20.725 29.4447 23.1 28.5957 25.125 26.8976C27.15 25.1996 28.4125 23.206 28.9125 20.9169C28.2875 21.1936 27.6187 21.4011 26.9062 21.5395C26.1938 21.6778 25.475 21.747 24.75 21.747C21.875 21.747 19.4313 20.7345 17.4188 18.7094C15.4062 16.6844 14.4 14.2254 14.4 11.3325C14.4 10.7288 14.4625 10.081 14.5875 9.38924C14.7125 8.69746 14.9375 7.91134 15.2625 7.03089C12.8125 7.71009 10.7813 9.08737 9.16875 11.1627C7.55625 13.2381 6.75 15.5587 6.75 18.1246C6.75 21.269 7.84375 23.9418 10.0312 26.143C12.2188 28.3441 14.875 29.4447 18 29.4447Z" fill="#363636"/>
</svg>
