<svg width="168" height="24" viewBox="0 0 168 24" fill="none" xmlns="http://www.w3.org/2000/svg">
<path d="M8.44 23.32C7.352 23.32 6.31733 23.192 5.336 22.936C4.376 22.6587 3.512 22.2427 2.744 21.688C1.99733 21.112 1.4 20.3973 0.952 19.544C0.504 18.6907 0.258667 17.688 0.216 16.536C0.216 16.344 0.28 16.184 0.408 16.056C0.536 15.9067 0.706667 15.832 0.92 15.832H2.648C2.88267 15.832 3.064 15.9067 3.192 16.056C3.34133 16.184 3.43733 16.3547 3.48 16.568C3.56533 17.528 3.84267 18.3067 4.312 18.904C4.78133 19.48 5.37867 19.9067 6.104 20.184C6.82933 20.4613 7.62933 20.6 8.504 20.6C10.1253 20.6 11.3627 20.0667 12.216 19C13.0693 17.9333 13.496 16.5147 13.496 14.744V3.384H2.136C1.92267 3.384 1.74133 3.32 1.592 3.192C1.464 3.04267 1.4 2.86133 1.4 2.648V1.336C1.4 1.12267 1.464 0.951999 1.592 0.823999C1.74133 0.674665 1.92267 0.599998 2.136 0.599998H15.928C16.1627 0.599998 16.344 0.674665 16.472 0.823999C16.6213 0.951999 16.696 1.13333 16.696 1.368V14.808C16.696 16.536 16.3653 18.04 15.704 19.32C15.0427 20.6 14.104 21.592 12.888 22.296C11.672 22.9787 10.1893 23.32 8.44 23.32ZM28.4653 23.32C26.8439 23.32 25.4893 23.0107 24.4013 22.392C23.3133 21.7733 22.4813 20.92 21.9053 19.832C21.3293 18.7227 21.0093 17.464 20.9453 16.056C20.9239 15.6933 20.9133 15.2347 20.9133 14.68C20.9133 14.104 20.9239 13.6453 20.9453 13.304C21.0093 11.8747 21.3293 10.616 21.9053 9.528C22.5026 8.44 23.3453 7.58667 24.4333 6.968C25.5213 6.34933 26.8653 6.04 28.4653 6.04C30.0653 6.04 31.4093 6.34933 32.4973 6.968C33.5853 7.58667 34.4173 8.44 34.9933 9.528C35.5906 10.616 35.9213 11.8747 35.9853 13.304C36.0066 13.6453 36.0173 14.104 36.0173 14.68C36.0173 15.2347 36.0066 15.6933 35.9853 16.056C35.9213 17.464 35.6013 18.7227 35.0253 19.832C34.4493 20.92 33.6173 21.7733 32.5293 22.392C31.4413 23.0107 30.0866 23.32 28.4653 23.32ZM28.4653 20.856C29.7879 20.856 30.8439 20.44 31.6333 19.608C32.4226 18.7547 32.8493 17.5173 32.9133 15.896C32.9346 15.576 32.9453 15.1707 32.9453 14.68C32.9453 14.1893 32.9346 13.784 32.9133 13.464C32.8493 11.8427 32.4226 10.616 31.6333 9.784C30.8439 8.93067 29.7879 8.504 28.4653 8.504C27.1426 8.504 26.0759 8.93067 25.2653 9.784C24.4759 10.616 24.0599 11.8427 24.0173 13.464C23.9959 13.784 23.9852 14.1893 23.9852 14.68C23.9852 15.1707 23.9959 15.576 24.0173 15.896C24.0599 17.5173 24.4759 18.7547 25.2653 19.608C26.0759 20.44 27.1426 20.856 28.4653 20.856ZM44.6643 23.32C43.5976 23.32 42.6269 23.1067 41.7523 22.68C40.8776 22.2533 40.1736 21.6773 39.6403 20.952C39.1069 20.2267 38.8403 19.4053 38.8403 18.488C38.8403 17.016 39.4376 15.8427 40.6323 14.968C41.8269 14.0933 43.3843 13.5173 45.3043 13.24L50.0723 12.568V11.64C50.0723 10.616 49.7736 9.816 49.1763 9.24C48.6003 8.664 47.6509 8.376 46.3283 8.376C45.3683 8.376 44.5896 8.568 43.9923 8.952C43.4163 9.336 43.0109 9.82667 42.7763 10.424C42.6483 10.744 42.4243 10.904 42.1043 10.904H40.6643C40.4296 10.904 40.2483 10.84 40.1203 10.712C40.0136 10.5627 39.9603 10.392 39.9603 10.2C39.9603 9.88 40.0776 9.48533 40.3123 9.016C40.5683 8.54667 40.9523 8.088 41.4643 7.64C41.9763 7.192 42.6269 6.81867 43.4163 6.52C44.2269 6.2 45.2083 6.04 46.3603 6.04C47.6403 6.04 48.7176 6.21067 49.5923 6.552C50.4669 6.872 51.1496 7.30933 51.6403 7.864C52.1523 8.41867 52.5149 9.048 52.7283 9.752C52.9629 10.456 53.0803 11.1707 53.0803 11.896V22.264C53.0803 22.4773 53.0056 22.6587 52.8563 22.808C52.7283 22.936 52.5576 23 52.3443 23H50.8723C50.6376 23 50.4563 22.936 50.3283 22.808C50.2003 22.6587 50.1363 22.4773 50.1363 22.264V20.888C49.8589 21.272 49.4856 21.656 49.0163 22.04C48.5469 22.4027 47.9603 22.712 47.2563 22.968C46.5523 23.2027 45.6883 23.32 44.6643 23.32ZM45.3363 20.92C46.2109 20.92 47.0109 20.7387 47.7363 20.376C48.4616 19.992 49.0269 19.4053 49.4323 18.616C49.8589 17.8267 50.0723 16.8347 50.0723 15.64V14.744L46.3603 15.288C44.8456 15.5013 43.7043 15.864 42.9363 16.376C42.1683 16.8667 41.7843 17.496 41.7843 18.264C41.7843 18.8613 41.9549 19.3627 42.2963 19.768C42.6589 20.152 43.1069 20.44 43.6403 20.632C44.1949 20.824 44.7603 20.92 45.3363 20.92ZM48.0243 4.12C47.4909 4.12 47.0643 4.03467 46.7443 3.864C46.4243 3.672 46.1256 3.49067 45.8483 3.32C45.5923 3.128 45.2936 3.032 44.9523 3.032C44.7176 3.032 44.5363 3.10667 44.4083 3.256C44.3016 3.40533 44.1949 3.56533 44.0883 3.736C44.0029 3.88533 43.8429 3.96 43.6083 3.96H42.5843C42.4349 3.96 42.3069 3.90667 42.2003 3.8C42.0936 3.69333 42.0403 3.576 42.0403 3.448C42.0403 3.128 42.0936 2.808 42.2003 2.488C42.3283 2.14667 42.5096 1.83733 42.7443 1.56C42.9789 1.26133 43.2563 1.02667 43.5763 0.855999C43.9176 0.685332 44.2909 0.599998 44.6963 0.599998C45.2509 0.599998 45.6883 0.695999 46.0083 0.887999C46.3283 1.05867 46.6269 1.24 46.9043 1.432C47.1816 1.60267 47.4696 1.688 47.7683 1.688C48.0456 1.688 48.2376 1.61333 48.3443 1.464C48.4509 1.29333 48.5469 1.13333 48.6323 0.983999C48.7389 0.813332 48.9096 0.727999 49.1443 0.727999H50.1683C50.3389 0.727999 50.4669 0.781332 50.5523 0.887999C50.6589 0.994665 50.7123 1.12267 50.7123 1.272C50.7123 1.57067 50.6483 1.89067 50.5203 2.232C50.4136 2.57333 50.2429 2.89333 50.0083 3.192C49.7736 3.46933 49.4856 3.69333 49.1443 3.864C48.8243 4.03467 48.4509 4.12 48.0243 4.12ZM64.4965 23.32C62.8752 23.32 61.5205 23.0107 60.4325 22.392C59.3445 21.7733 58.5125 20.92 57.9365 19.832C57.3605 18.7227 57.0405 17.464 56.9765 16.056C56.9552 15.6933 56.9445 15.2347 56.9445 14.68C56.9445 14.104 56.9552 13.6453 56.9765 13.304C57.0405 11.8747 57.3605 10.616 57.9365 9.528C58.5338 8.44 59.3765 7.58667 60.4645 6.968C61.5525 6.34933 62.8965 6.04 64.4965 6.04C66.0965 6.04 67.4405 6.34933 68.5285 6.968C69.6165 7.58667 70.4485 8.44 71.0245 9.528C71.6218 10.616 71.9525 11.8747 72.0165 13.304C72.0378 13.6453 72.0485 14.104 72.0485 14.68C72.0485 15.2347 72.0378 15.6933 72.0165 16.056C71.9525 17.464 71.6325 18.7227 71.0565 19.832C70.4805 20.92 69.6485 21.7733 68.5605 22.392C67.4725 23.0107 66.1178 23.32 64.4965 23.32ZM64.4965 20.856C65.8192 20.856 66.8752 20.44 67.6645 19.608C68.4538 18.7547 68.8805 17.5173 68.9445 15.896C68.9658 15.576 68.9765 15.1707 68.9765 14.68C68.9765 14.1893 68.9658 13.784 68.9445 13.464C68.8805 11.8427 68.4538 10.616 67.6645 9.784C66.8752 8.93067 65.8192 8.504 64.4965 8.504C63.1738 8.504 62.1072 8.93067 61.2965 9.784C60.5072 10.616 60.0912 11.8427 60.0485 13.464C60.0272 13.784 60.0165 14.1893 60.0165 14.68C60.0165 15.1707 60.0272 15.576 60.0485 15.896C60.0912 17.5173 60.5072 18.7547 61.2965 19.608C62.1072 20.44 63.1738 20.856 64.4965 20.856Z" fill="#767676"/>
<path d="M76.9515 23C76.7382 23 76.5568 22.9253 76.4075 22.776C76.2582 22.6267 76.1835 22.4453 76.1835 22.232V1.4C76.1835 1.16533 76.2582 0.973332 76.4075 0.823999C76.5568 0.674665 76.7382 0.599998 76.9515 0.599998H91.0315C91.2662 0.599998 91.4582 0.674665 91.6075 0.823999C91.7568 0.973332 91.8315 1.16533 91.8315 1.4V3.512C91.8315 3.72533 91.7568 3.90667 91.6075 4.056C91.4582 4.20533 91.2662 4.28 91.0315 4.28H80.5035V9.944H90.3275C90.5622 9.944 90.7542 10.0187 90.9035 10.168C91.0528 10.296 91.1275 10.4773 91.1275 10.712V12.696C91.1275 12.9307 91.0528 13.1227 90.9035 13.272C90.7542 13.4 90.5622 13.464 90.3275 13.464H80.5035V19.32H91.2875C91.5222 19.32 91.7142 19.3947 91.8635 19.544C92.0128 19.6933 92.0875 19.8853 92.0875 20.12V22.232C92.0875 22.4453 92.0128 22.6267 91.8635 22.776C91.7142 22.9253 91.5222 23 91.2875 23H76.9515ZM101.757 23.32C100.647 23.32 99.6661 23.1387 98.8128 22.776C97.9808 22.392 97.2874 21.8587 96.7328 21.176C96.1781 20.4933 95.7514 19.6933 95.4528 18.776C95.1541 17.8373 94.9834 16.8133 94.9408 15.704C94.9194 15.32 94.9088 14.9787 94.9088 14.68C94.9088 14.36 94.9194 14.008 94.9408 13.624C94.9834 12.5573 95.1434 11.5653 95.4208 10.648C95.7194 9.73067 96.1461 8.93067 96.7008 8.248C97.2768 7.544 97.9808 7 98.8128 6.616C99.6661 6.232 100.647 6.04 101.757 6.04C102.909 6.04 103.879 6.24267 104.669 6.648C105.479 7.032 106.151 7.53333 106.685 8.152V1.048C106.685 0.834665 106.749 0.653332 106.877 0.504C107.026 0.354666 107.218 0.279999 107.453 0.279999H110.173C110.386 0.279999 110.567 0.354666 110.717 0.504C110.866 0.653332 110.941 0.834665 110.941 1.048V22.232C110.941 22.4453 110.866 22.6267 110.717 22.776C110.567 22.9253 110.386 23 110.173 23H107.645C107.41 23 107.218 22.9253 107.069 22.776C106.941 22.6267 106.877 22.4453 106.877 22.232V21.048C106.343 21.7093 105.661 22.2533 104.829 22.68C104.018 23.1067 102.994 23.32 101.757 23.32ZM102.941 19.896C103.837 19.896 104.551 19.6933 105.085 19.288C105.618 18.8827 106.013 18.3707 106.269 17.752C106.525 17.112 106.663 16.4613 106.685 15.8C106.706 15.416 106.717 15.0107 106.717 14.584C106.717 14.136 106.706 13.72 106.685 13.336C106.663 12.696 106.514 12.088 106.237 11.512C105.959 10.9147 105.554 10.424 105.021 10.04C104.487 9.656 103.794 9.464 102.941 9.464C102.045 9.464 101.33 9.66667 100.797 10.072C100.285 10.456 99.9114 10.968 99.6768 11.608C99.4421 12.248 99.3034 12.952 99.2608 13.72C99.2394 14.36 99.2394 15 99.2608 15.64C99.3034 16.408 99.4421 17.112 99.6768 17.752C99.9114 18.392 100.285 18.9147 100.797 19.32C101.33 19.704 102.045 19.896 102.941 19.896ZM121.51 23.32C120.23 23.32 119.131 23.1707 118.214 22.872C117.318 22.5733 116.582 22.2 116.006 21.752C115.43 21.304 115.003 20.856 114.726 20.408C114.448 19.96 114.299 19.5867 114.278 19.288C114.256 19.0533 114.32 18.872 114.47 18.744C114.64 18.5947 114.822 18.52 115.014 18.52H117.542C117.627 18.52 117.702 18.5307 117.766 18.552C117.83 18.5733 117.915 18.6373 118.022 18.744C118.299 18.9787 118.587 19.224 118.886 19.48C119.206 19.736 119.579 19.96 120.006 20.152C120.432 20.3227 120.966 20.408 121.606 20.408C122.438 20.408 123.131 20.248 123.686 19.928C124.262 19.5867 124.55 19.1067 124.55 18.488C124.55 18.04 124.422 17.6773 124.166 17.4C123.931 17.1227 123.483 16.8773 122.822 16.664C122.16 16.4293 121.222 16.184 120.006 15.928C118.811 15.6507 117.819 15.2987 117.03 14.872C116.24 14.4453 115.654 13.912 115.27 13.272C114.886 12.632 114.694 11.8853 114.694 11.032C114.694 10.2 114.939 9.41067 115.43 8.664C115.942 7.896 116.688 7.26667 117.67 6.776C118.672 6.28533 119.91 6.04 121.382 6.04C122.534 6.04 123.536 6.18933 124.39 6.488C125.243 6.76533 125.947 7.11733 126.502 7.544C127.078 7.97067 127.515 8.408 127.814 8.856C128.112 9.28267 128.272 9.656 128.294 9.976C128.315 10.2107 128.251 10.4027 128.102 10.552C127.952 10.68 127.782 10.744 127.59 10.744H125.222C125.115 10.744 125.019 10.7227 124.934 10.68C124.848 10.6373 124.763 10.584 124.678 10.52C124.443 10.3067 124.187 10.0827 123.91 9.848C123.632 9.61333 123.291 9.41067 122.886 9.24C122.502 9.048 121.99 8.952 121.35 8.952C120.539 8.952 119.92 9.13333 119.494 9.496C119.067 9.83733 118.854 10.2747 118.854 10.808C118.854 11.1707 118.95 11.4907 119.142 11.768C119.355 12.024 119.771 12.2693 120.39 12.504C121.008 12.7387 121.947 12.984 123.206 13.24C124.635 13.496 125.766 13.88 126.598 14.392C127.451 14.8827 128.048 15.4587 128.39 16.12C128.752 16.76 128.934 17.4747 128.934 18.264C128.934 19.224 128.646 20.088 128.07 20.856C127.515 21.624 126.683 22.232 125.574 22.68C124.486 23.1067 123.131 23.32 121.51 23.32ZM139.597 23.32C137.89 23.32 136.45 23.0213 135.277 22.424C134.125 21.8267 133.24 20.984 132.621 19.896C132.024 18.808 131.682 17.5387 131.597 16.088C131.576 15.704 131.565 15.2347 131.565 14.68C131.565 14.1253 131.576 13.656 131.597 13.272C131.682 11.8 132.034 10.5307 132.653 9.464C133.293 8.376 134.189 7.53333 135.341 6.936C136.514 6.33867 137.933 6.04 139.597 6.04C141.261 6.04 142.669 6.33867 143.821 6.936C144.994 7.53333 145.89 8.376 146.509 9.464C147.149 10.5307 147.512 11.8 147.597 13.272C147.618 13.656 147.629 14.1253 147.629 14.68C147.629 15.2347 147.618 15.704 147.597 16.088C147.512 17.5387 147.16 18.808 146.541 19.896C145.944 20.984 145.058 21.8267 143.885 22.424C142.733 23.0213 141.304 23.32 139.597 23.32ZM139.597 20.152C140.728 20.152 141.602 19.8 142.221 19.096C142.84 18.3707 143.181 17.3147 143.245 15.928C143.266 15.608 143.277 15.192 143.277 14.68C143.277 14.168 143.266 13.752 143.245 13.432C143.181 12.0667 142.84 11.0213 142.221 10.296C141.602 9.57067 140.728 9.208 139.597 9.208C138.466 9.208 137.592 9.57067 136.973 10.296C136.354 11.0213 136.013 12.0667 135.949 13.432C135.928 13.752 135.917 14.168 135.917 14.68C135.917 15.192 135.928 15.608 135.949 15.928C136.013 17.3147 136.354 18.3707 136.973 19.096C137.592 19.8 138.466 20.152 139.597 20.152ZM151.943 23C151.729 23 151.548 22.9253 151.399 22.776C151.249 22.6267 151.174 22.4453 151.174 22.232V7.128C151.174 6.91467 151.249 6.73333 151.399 6.584C151.548 6.43467 151.729 6.36 151.943 6.36H154.567C154.78 6.36 154.961 6.43467 155.111 6.584C155.26 6.73333 155.335 6.91467 155.335 7.128V8.44C155.889 7.75733 156.593 7.192 157.447 6.744C158.321 6.27467 159.399 6.04 160.679 6.04C161.98 6.04 163.111 6.33867 164.071 6.936C165.031 7.512 165.767 8.33333 166.279 9.4C166.812 10.4667 167.079 11.7467 167.079 13.24V22.232C167.079 22.4453 167.004 22.6267 166.855 22.776C166.705 22.9253 166.524 23 166.311 23H163.495C163.281 23 163.1 22.9253 162.951 22.776C162.801 22.6267 162.727 22.4453 162.727 22.232V13.432C162.727 12.1947 162.417 11.224 161.799 10.52C161.201 9.816 160.327 9.464 159.175 9.464C158.065 9.464 157.18 9.816 156.519 10.52C155.857 11.224 155.527 12.1947 155.527 13.432V22.232C155.527 22.4453 155.452 22.6267 155.303 22.776C155.153 22.9253 154.972 23 154.759 23H151.943Z" fill="#294735"/>
</svg>
