<svg width="60" height="60" viewBox="0 0 60 60" fill="none" xmlns="http://www.w3.org/2000/svg">
<path d="M39.375 20.625C41.8614 20.625 44.246 19.6373 46.0041 17.8791C47.7623 16.121 48.75 13.7364 48.75 11.25C48.75 8.7636 47.7623 6.37903 46.0041 4.62087C44.246 2.86272 41.8614 1.875 39.375 1.875H20.625C18.1386 1.875 15.754 2.86272 13.9959 4.62087C12.2377 6.37903 11.25 8.7636 11.25 11.25C11.25 13.7364 12.2377 16.121 13.9959 17.8791C15.754 19.6373 18.1386 20.625 20.625 20.625C18.1386 20.625 15.754 21.6127 13.9959 23.3709C12.2377 25.129 11.25 27.5136 11.25 30C11.25 32.4864 12.2377 34.871 13.9959 36.6291C15.754 38.3873 18.1386 39.375 20.625 39.375C18.7708 39.375 16.9582 39.9248 15.4165 40.955C13.8748 41.9851 12.6732 43.4493 11.9636 45.1623C11.2541 46.8754 11.0684 48.7604 11.4301 50.579C11.7919 52.3975 12.6848 54.068 13.9959 55.3791C15.307 56.6902 16.9775 57.5831 18.796 57.9449C20.6146 58.3066 22.4996 58.1209 24.2127 57.4114C25.9257 56.7018 27.3899 55.5002 28.42 53.9585C29.4502 52.4168 30 50.6042 30 48.75V20.625H39.375Z" fill="black"/>
<path d="M39.375 39.375C44.5527 39.375 48.75 35.1777 48.75 30C48.75 24.8223 44.5527 20.625 39.375 20.625C34.1973 20.625 30 24.8223 30 30C30 35.1777 34.1973 39.375 39.375 39.375Z" fill="black"/>
</svg>
