<svg width="60" height="60" viewBox="0 0 60 60" fill="none" xmlns="http://www.w3.org/2000/svg">
<path d="M30 3.75C15.5039 3.75 3.75 15.8086 3.75 30.668C3.75 42.5625 11.2734 52.6406 21.7031 56.2031C21.8494 56.2349 21.9987 56.2506 22.1484 56.25C23.1211 56.25 23.4961 55.5352 23.4961 54.9141C23.4961 54.2695 23.4727 52.582 23.4609 50.332C22.5926 50.5356 21.7043 50.6417 20.8125 50.6484C15.7617 50.6484 14.6133 46.7227 14.6133 46.7227C13.418 43.6172 11.6953 42.7852 11.6953 42.7852C9.41016 41.1797 11.6836 41.1328 11.8594 41.1328H11.8711C14.5078 41.3672 15.8906 43.9219 15.8906 43.9219C17.2031 46.2188 18.9609 46.8633 20.5312 46.8633C21.5696 46.8425 22.5918 46.6029 23.5312 46.1602C23.7656 44.4258 24.4453 43.2422 25.1953 42.5625C19.3711 41.8828 13.2422 39.5742 13.2422 29.2617C13.2422 26.3203 14.2617 23.918 15.9375 22.043C15.668 21.3633 14.7656 18.6211 16.1953 14.918C16.3871 14.8721 16.5842 14.8524 16.7812 14.8594C17.7305 14.8594 19.875 15.2227 23.4141 17.6836C27.7143 16.4804 32.2623 16.4804 36.5625 17.6836C40.1016 15.2227 42.2461 14.8594 43.1953 14.8594C43.3924 14.8524 43.5895 14.8721 43.7812 14.918C45.2109 18.6211 44.3086 21.3633 44.0391 22.043C45.7148 23.9297 46.7344 26.332 46.7344 29.2617C46.7344 39.5977 40.5938 41.8711 34.7461 42.5391C35.6836 43.3711 36.5273 45.0117 36.5273 47.5195C36.5273 51.1172 36.4922 54.0234 36.4922 54.9023C36.4922 55.5352 36.8555 56.25 37.8281 56.25C37.9856 56.2507 38.1427 56.235 38.2969 56.2031C48.7383 52.6406 56.25 42.5508 56.25 30.668C56.25 15.8086 44.4961 3.75 30 3.75Z" fill="black"/>
</svg>
