<svg width="60" height="60" viewBox="0 0 60 60" fill="none" xmlns="http://www.w3.org/2000/svg">
<path d="M3.75 3.75V56.25H56.25V3.75H3.75ZM31.875 44.5312C31.875 49.6418 28.8562 52.1332 24.4863 52.1332C20.5395 52.1332 18.2484 50.0895 17.0859 47.6227L21.1031 45.191C21.8777 46.5656 22.466 47.7281 24.157 47.7281C25.5633 47.7281 26.7188 47.0941 26.7188 44.6273V28.125H31.875V44.5312ZM43.5176 52.016C38.9367 52.016 35.9766 49.9488 34.5316 47.0941L38.5547 44.7656C39.6094 46.493 40.9863 47.6437 43.418 47.6437C45.4617 47.6437 46.6488 46.7391 46.6488 45.3293C46.6488 43.6383 45.4266 43.0395 43.1707 42.048L41.9379 41.5184C38.3777 40.0043 36.0176 38.1012 36.0176 34.0828C36.0176 30.3832 38.8359 27.6809 43.241 27.6809C46.3781 27.6809 48.6316 28.6559 50.2547 31.5105L46.4062 33.9844C45.5602 32.4691 44.6484 31.875 43.2352 31.875C41.7902 31.875 40.8738 32.7914 40.8738 33.9844C40.8738 35.4645 41.7902 36.0633 43.9043 36.9797L45.1371 37.5082C49.3313 39.3059 51.6926 41.141 51.6926 45.2613C51.6937 49.7027 48.2051 52.016 43.5176 52.016Z" fill="black"/>
</svg>
